<svg width="18" height="19" viewBox="0 0 18 19" fill="none" xmlns="http://www.w3.org/2000/svg">
<path d="M2.6777 14.2898H3.97928V15.5914C3.97928 17.3407 4.85395 18.205 6.63452 18.205H14.8189C16.589 18.205 17.4741 17.3407 17.4741 15.5914V7.32373C17.4741 5.5744 16.589 4.71016 14.8189 4.71016H13.5173V3.40857C13.5173 1.65923 12.6322 0.794983 10.8621 0.794983H2.6777C0.89713 0.794983 0.0224609 1.65923 0.0224609 3.40857V11.6762C0.0224609 13.4256 0.89713 14.2898 2.6777 14.2898ZM2.69853 12.7904C1.9488 12.7904 1.52189 12.3843 1.52189 11.5929V3.49187C1.52189 2.70051 1.9488 2.29442 2.69853 2.29442H10.8412C11.591 2.29442 12.0179 2.70051 12.0179 3.49187V4.71016H6.63452C4.85395 4.71016 3.97928 5.5744 3.97928 7.32373V12.7904H2.69853ZM6.65533 16.7056C5.90562 16.7056 5.47871 16.2995 5.47871 15.5081V7.40704C5.47871 6.61567 5.90562 6.20957 6.65533 6.20957H14.798C15.5478 6.20957 15.9747 6.61567 15.9747 7.40704V15.5081C15.9747 16.2995 15.5478 16.7056 14.798 16.7056H6.65533Z" fill="white"/>
</svg>
